<svg id="Capa_1" data-name="Capa 1" xmlns="http://www.w3.org/2000/svg" viewBox="0 0 1676 852.5"><defs><style>.cls-1{fill:#fff;}.cls-2{fill:#1b85cc;}</style></defs><title>logo</title><path class="cls-1" d="M405.7,523V954.3H344v-195H123.7v195H61.4V523h62.3V703.8H344V523Z" transform="translate(-41 -114.2)"/><path class="cls-1" d="M818.2,576.1q62.7,65.4,62.6,164.1T818.5,902.8q-62.4,63.9-157.4,63.9T503.7,902.8q-62.4-63.9-62.3-163.2t62-164.1q62-64.8,157.1-64.8T818.2,576.1Zm.9,164.2q0-75.3-45.4-125T660.5,565.6q-67.95,0-112.6,49.4T503.2,739.7q0,74.7,44.7,123.4t113.2,48.8q68.4,0,113.2-48.4Q819.15,814.9,819.1,740.3Z" transform="translate(-41 -114.2)"/><path class="cls-1" d="M1286.3,523h67.3V954.3h-60.5V641.5l-158,298.1-158-298.1V954.4H916.6V523h67.3l151.2,295Z" transform="translate(-41 -114.2)"/><path class="cls-1" d="M1717,899.5v54.9H1409.7V523h299.9v55.5H1471.4V704.4h206.7V760H1471.4V899.5Z" transform="translate(-41 -114.2)"/><path class="cls-2" d="M310.5,398.7l57.8-178.1h50.6L330.1,475.1H288.3L228.9,297,168.5,475.1H125.1L41,220.6H94.2L150,398.7l60.4-178.1h41.3Z" transform="translate(-41 -114.2)"/><path class="cls-2" d="M531,482.9q-58.8,0-91.9-36.4t-33-98.4q0-62,33-98.4T531,213.3q58.8,0,91.9,36.4t33,98.4q0,61.95-33,98.4Q589.75,482.8,531,482.9ZM458.7,348.1q0,89.4,72.3,89.3t72.3-89.3q0-89.25-72.3-89.3T458.7,348.1Z" transform="translate(-41 -114.2)"/><path class="cls-2" d="M813.4,270.1c-9.6-1.4-16.7-2.1-21.2-2.1q-36.15,0-53.7,27.9-10.35,17.55-10.3,57.8V475h-49V220.6h49v35.6c15.1-25.1,37.7-37.7,67.6-37.7a111.06,111.06,0,0,1,17.6,1.5v50.1Z" transform="translate(-41 -114.2)"/><path class="cls-2" d="M908.9,475.6c-10.3.7-17,1-20.1,1q-34.65,0-50.1-16-15-16.5-15-55.2V114.2h49V404.4c0,11.4,1.9,18.9,5.7,22.7s10.7,5.7,20.7,5.7h9.8v42.8Z" transform="translate(-41 -114.2)"/><polygon class="cls-2" points="888.5 358.3 1328.7 358.3 1094.2 90.9 888.5 358.3"/><rect class="cls-2" x="1240.2" y="86.8" width="65.8" height="248.9"/><rect class="cls-1" x="1046.8" y="208.1" width="111.1" height="125.5"/><rect class="cls-2" x="1094.2" y="177.3" width="14.4" height="179"/><rect class="cls-2" x="1022.2" y="267.8" width="154.3" height="8.2"/></svg>