<?xml version="1.0" encoding="utf-8"?>
<!-- Generator: Adobe Illustrator 24.0.2, SVG Export Plug-In . SVG Version: 6.00 Build 0)  -->
<svg version="1.1" id="Capa_1" xmlns="http://www.w3.org/2000/svg" xmlns:xlink="http://www.w3.org/1999/xlink" x="0px" y="0px"
	 viewBox="0 0 1754.9 1136.3" style="enable-background:new 0 0 1754.9 1136.3;" xml:space="preserve">
<style type="text/css">
	.st0{fill:#FFFFFF;}
	.st1{fill:#1B85CC;}
</style>
<title>logo</title>
<g>
	<g>
		<path class="st0" d="M405.7,523v431.3H344v-195H123.7v195H61.4V523h62.3v180.8H344V523H405.7z"/>
		<path class="st0" d="M818.2,576.1c41.8,43.6,62.6,98.3,62.6,164.1s-20.8,120-62.3,162.6c-41.6,42.6-94,63.9-157.4,63.9
			s-115.8-21.3-157.4-63.9c-41.6-42.6-62.3-97-62.3-163.2s20.7-121,62-164.1c41.3-43.2,93.7-64.8,157.1-64.8
			C723.9,510.7,776.5,532.5,818.2,576.1z M819.1,740.3c0-50.2-15.1-91.8-45.4-125c-30.2-33.1-68-49.7-113.2-49.7
			c-45.3,0-82.8,16.5-112.6,49.4s-44.7,74.5-44.7,124.7c0,49.8,14.9,90.9,44.7,123.4s67.6,48.8,113.2,48.8s83.4-16.1,113.2-48.4
			C804.2,831.1,819.1,790,819.1,740.3z"/>
		<path class="st0" d="M1286.3,523h67.3v431.3h-60.5V641.5l-158,298.1l-158-298.1v312.9h-60.5V523h67.3l151.2,295L1286.3,523z"/>
		<path class="st0" d="M1717,899.5v54.9h-307.3V523h299.9v55.5h-238.2v125.9h206.7V760h-206.7v139.5H1717z"/>
	</g>
	<g>
		<path class="st1" d="M310.5,398.7l57.8-178.1h50.6l-88.8,254.5h-41.8L228.9,297l-60.4,178.1h-43.4L41,220.6h53.2L150,398.7
			l60.4-178.1h41.3L310.5,398.7z"/>
		<path class="st1" d="M531,482.9c-39.2,0-69.9-12.1-91.9-36.4s-33-57.1-33-98.4s11-74.1,33-98.4s52.7-36.4,91.9-36.4
			s69.9,12.1,91.9,36.4s33,57.1,33,98.4s-11,74.1-33,98.4C600.8,470.7,570.2,482.9,531,482.9z M458.7,348.1
			c0,59.6,24.1,89.3,72.3,89.3s72.3-29.8,72.3-89.3s-24.1-89.3-72.3-89.3C482.8,258.8,458.7,288.6,458.7,348.1z"/>
		<path class="st1" d="M813.4,270.1c-9.6-1.4-16.7-2.1-21.2-2.1c-24.1,0-42,9.3-53.7,27.9c-6.9,11.7-10.3,31-10.3,57.8V475h-49
			V220.6h49v35.6c15.1-25.1,37.7-37.7,67.6-37.7c5.5,0,11.4,0.5,17.6,1.5L813.4,270.1L813.4,270.1z"/>
		<path class="st1" d="M908.9,475.6c-10.3,0.7-17,1-20.1,1c-23.1,0-39.8-5.3-50.1-16c-10-11-15-29.4-15-55.2V114.2h49v290.2
			c0,11.4,1.9,18.9,5.7,22.7c3.8,3.8,10.7,5.7,20.7,5.7h9.8L908.9,475.6L908.9,475.6z"/>
	</g>
	<polygon class="st1" points="929.5,472.5 1369.7,472.5 1135.2,205.1 	"/>
	<rect x="1281.2" y="201" class="st1" width="65.8" height="248.9"/>
	<rect x="1087.8" y="322.3" class="st0" width="111.1" height="125.5"/>
	<rect x="1135.2" y="291.5" class="st1" width="14.4" height="179"/>
	<rect x="1063.2" y="382" class="st1" width="154.3" height="8.2"/>
</g>
</svg>
