<svg xmlns="http://www.w3.org/2000/svg" viewBox="0 0 1266.93 1267.32"><defs><style>.cls-1{font-size:459.7px;letter-spacing:-0.06em;}.cls-1,.cls-2{font-family:RMPro-Regular, RM Pro;}.cls-2{font-size:384.62px;letter-spacing:-0.05em;}.cls-2,.cls-3{fill:red;}.cls-4{fill:#fff;}</style></defs><title>notfound</title><g id="Capa_1" data-name="Capa 1"><text class="cls-1" transform="translate(0 1078.65)">HOME</text><text class="cls-2" transform="translate(18.39 721.61)">worl</text><polygon class="cls-3" points="680.25 719.65 1008.18 719.65 833.49 520.45 680.25 719.65"/><rect class="cls-3" x="942.29" y="517.38" width="49.04" height="185.41"/><rect class="cls-4" x="798.24" y="607.79" width="82.75" height="93.47"/><rect class="cls-3" x="833.49" y="584.8" width="10.73" height="133.31"/><rect class="cls-3" x="779.86" y="652.23" width="114.93" height="6.13"/></g><g id="Capa_4" data-name="Capa 4"><path d="M505.71,1500.26h30.58c15.7,0,26.39,8.81,26.39,23.07,0,15.94-11.89,23.62-26.85,23.62H520v29.38h-14.3Zm14.3,35.17H534.3c8.58,0,13.9-3.67,13.9-11.8,0-8.34-5.89-11.86-13.54-11.86H520Z" transform="translate(-342.66 -310.2)"/><path d="M581.89,1557l-6.7,19.37H561.12l26.26-76.07h17.84l27.4,76.07h-15l-7-19.37Zm25.46-11.82c-6-17.41-9.66-27.79-11.43-34.27h-.12c-1.86,7.14-5.89,19.39-10.74,34.27Z" transform="translate(-342.66 -310.2)"/><path d="M706.64,1576.33H696.07a39.15,39.15,0,0,1-1.16-8.46c-3.91,5.59-11,9.65-22.7,9.65-22,0-34.14-16.67-34.14-38.33,0-22.84,13-40,36.66-40,18.92,0,30.31,10.54,32.27,23.73H692.73c-1.91-6.27-6.65-12.37-18.22-12.37-16.32,0-21.65,13.42-21.65,28,0,14,5.77,27.46,21.57,27.46,15.09,0,18.24-10.31,18.24-19.18v-.73h-18.3v-11.82h32.27Z" transform="translate(-342.66 -310.2)"/><path d="M774.71,1542.58H737.83v21.93h40.62l-1.73,11.82H724v-76.07h52.43v11.82H737.83v18.68h36.88Z" transform="translate(-342.66 -310.2)"/><path d="M818.22,1576.33v-76.07h18c10,17.32,29.67,50.54,33.43,58.82h.18c-.81-8.56-.78-21.36-.78-33.82v-25h13.07v76.07h-17c-8.82-15.43-30.09-52.64-34.2-61.34h-.19c.55,7.34.67,22,.67,35.7v25.64Z" transform="translate(-342.66 -310.2)"/><path d="M969.59,1538c0,21.08-12.37,39.45-36.83,39.45-23.36,0-35.86-17.33-35.86-39.13,0-22,13.44-39.14,36.86-39.14C955.73,1499.16,969.59,1514.92,969.59,1538Zm-57.9,0c0,15.39,7.16,27.72,21.63,27.72,15.67,0,21.49-13,21.49-27.53,0-15.07-6.61-27.26-21.65-27.26S911.69,1522.67,911.69,1538Z" transform="translate(-342.66 -310.2)"/><path d="M998,1512.08H974.43v-11.82h61.48v11.82h-23.57v64.25H998Z" transform="translate(-342.66 -310.2)"/><path d="M1073.41,1500.26h51.66v11.82h-37.7v20.71h35.32v11.83h-35.32v31.71h-14Z" transform="translate(-342.66 -310.2)"/><path d="M1207.3,1538c0,21.08-12.38,39.45-36.83,39.45-23.37,0-35.87-17.33-35.87-39.13,0-22,13.45-39.14,36.87-39.14C1193.44,1499.16,1207.3,1514.92,1207.3,1538Zm-57.91,0c0,15.39,7.17,27.72,21.64,27.72,15.67,0,21.48-13,21.48-27.53,0-15.07-6.6-27.26-21.65-27.26S1149.39,1522.67,1149.39,1538Z" transform="translate(-342.66 -310.2)"/><path d="M1235.67,1500.26v45.48c0,15.76,8.31,20.27,17,20.27,10.1,0,16.74-5.16,16.74-20.27v-45.48h14.3V1545c0,25.55-14.69,32.34-31.26,32.34-16.72,0-31.15-7.17-31.15-31.89v-45.22Z" transform="translate(-342.66 -310.2)"/><path d="M1302,1576.33v-76.07h18c10,17.32,29.67,50.54,33.43,58.82h.18c-.81-8.56-.78-21.36-.78-33.82v-25h13.07v76.07h-17c-8.82-15.43-30.09-52.64-34.2-61.34h-.19c.55,7.34.67,22,.67,35.7v25.64Z" transform="translate(-342.66 -310.2)"/><path d="M1384.92,1500.26h29.15c21.89,0,36.37,14.58,36.37,37.14,0,22.3-14.07,38.93-36.94,38.93h-28.58Zm14.27,64.4h13.58c15.72,0,22.88-11.52,22.88-27.16,0-13.31-6.63-25.57-22.8-25.57h-13.66Z" transform="translate(-342.66 -310.2)"/><path d="M744.18,658.58H707.31v21.93h40.61l-1.72,11.82H693.42V616.26h52.44v11.82H707.31v18.68h36.87Z" transform="translate(-342.66 -310.2)"/><path d="M774.4,660.84v31.49h-14V616.26h32.16c16.26,0,25,8.91,25,20.7,0,10.1-5.6,15.79-11.72,18,4.61,1.49,10.2,5.66,10.2,19.13v3.59c0,5.16-.06,11.26,1.06,14.69H803.5c-1.36-3.3-1.49-9.07-1.49-16.83v-1.28c0-9.18-2.43-13.38-15.16-13.38Zm0-11.52h14.74c9.9,0,13.94-3.75,13.94-10.86,0-6.84-4.47-10.69-13.29-10.69H774.4Z" transform="translate(-342.66 -310.2)"/><path d="M847,660.84v31.49H833V616.26h32.16c16.26,0,25,8.91,25,20.7,0,10.1-5.59,15.79-11.71,18,4.61,1.49,10.2,5.66,10.2,19.13v3.59c0,5.16-.06,11.26,1.06,14.69H876.09c-1.35-3.3-1.48-9.07-1.48-16.83v-1.28c0-9.18-2.43-13.38-15.17-13.38Zm0-11.52h14.74c9.9,0,13.94-3.75,13.94-10.86,0-6.84-4.47-10.69-13.3-10.69H847Z" transform="translate(-342.66 -310.2)"/><path d="M974.27,654c0,21.08-12.38,39.45-36.83,39.45-23.37,0-35.87-17.33-35.87-39.13,0-22,13.45-39.14,36.87-39.14C960.41,615.16,974.27,630.92,974.27,654Zm-57.91,0c0,15.39,7.17,27.72,21.64,27.72,15.67,0,21.48-13,21.48-27.53,0-15.07-6.61-27.26-21.65-27.26S916.36,638.67,916.36,654Z" transform="translate(-342.66 -310.2)"/><path d="M1003.09,660.84v31.49h-14V616.26h32.16c16.26,0,25,8.91,25,20.7,0,10.1-5.6,15.79-11.71,18,4.6,1.49,10.19,5.66,10.19,19.13v3.59c0,5.16,0,11.26,1.07,14.69h-13.61c-1.35-3.3-1.48-9.07-1.48-16.83v-1.28c0-9.18-2.43-13.38-15.17-13.38Zm0-11.52h14.74c9.9,0,13.93-3.75,13.93-10.86,0-6.84-4.46-10.69-13.29-10.69h-15.38Z" transform="translate(-342.66 -310.2)"/><path d="M1115.71,692.33V675.26h-33.18v-12L1113.67,620h14.82V664h8.94l-1.31,11.22h-7.63v17.07Zm0-43c0-7.08,0-12.4.29-17-2.89,5.9-13.91,21.57-21,31.73h20.75Z" transform="translate(-342.66 -310.2)"/><path d="M1200.68,655.67c0,19.23-5.91,38-27,38-20.73,0-26.93-17.91-26.93-37.51,0-19.4,6.83-37.51,27.26-37.51C1194,618.63,1200.68,635.81,1200.68,655.67ZM1161,656c0,13.46,1.81,26.57,12.91,26.57s12.59-12.34,12.59-26.84c0-14-1.94-26-12.38-26S1161,640.27,1161,656Z" transform="translate(-342.66 -310.2)"/><path d="M1244.73,692.33V675.26h-33.17v-12L1242.69,620h14.82V664h8.94l-1.31,11.22h-7.63v17.07Zm0-43c0-7.08,0-12.4.3-17-2.9,5.9-13.92,21.57-21,31.73h20.74Z" transform="translate(-342.66 -310.2)"/><path class="cls-3" d="M1007.19,362.49c0-17.11-12.05-30.42-34.86-30.42-16.17,0-29.79,7-41.2,18.06L915.6,335.87c14.26-14.89,33.91-25.67,58.31-25.67,35.18,0,58.95,19.33,58.95,49.44,0,43.1-57.36,52-52,92.85H957.75C950.14,407.49,1007.19,394.82,1007.19,362.49Zm-59,142.93c0-15.21,10.78-24.4,23.45-24.4s23.45,9.19,23.45,24.4-10.77,24.72-23.45,24.72S948.24,520.63,948.24,505.42Z" transform="translate(-342.66 -310.2)"/></g></svg>